<svg width="192" height="192" viewBox="0 0 192 192" fill="none" xmlns="http://www.w3.org/2000/svg">
<rect width="192" height="192" fill="#EDEDED"/>
<path d="M33.1667 102.917C56.0625 89.0834 85.5 89.0834 98.5833 116.75C104.118 113.762 110.291 112.341 116.5 112.625C122.709 112.91 128.742 114.889 134.013 118.372C139.283 121.855 143.61 126.721 146.572 132.498C149.535 138.274 151.031 144.763 150.917 151.333" stroke="black" stroke-width="4" stroke-linecap="round" stroke-linejoin="round"/>
<path d="M40.6896 136.739C76.7996 126.226 97.275 89.0833 86.4813 53.7392C82.5563 40.6667 82.2292 26.8333 92.0417 26.8333C113.106 26.8333 124.75 64.875 124.75 82.1667C124.75 127.125 97.275 165.167 56.1279 165.167C40.4279 165.167 20.0833 165.167 20.0833 151.333C20.0833 140.958 27.5408 140.613 40.6896 136.739Z" stroke="black" stroke-width="4" stroke-linecap="round" stroke-linejoin="round"/>
</svg>
